# xmcd
#
# Track frame offsets:
#	150
#	16855
#	32273
#	44213
#	63295
#	77393
#	90410
#	101755
#	116350
#	132625
#	151000
#	166980
#
# Disc length: 2409 seconds
#
# Revision: 1
# Processed by: cddbd v1.5.1PL0 Copyright (c) Steve Scherf et al.
# Submitted via: CDex 1.50Beta5
#
DISCID=8609670c
DTITLE=伊東ゆかり - 伊東ゆかり・ベスト・セレクション〜コロムビアCD文庫1,800〜
DYEAR=1993
DGENRE=Pop
TTITLE0=わたし女ですもの
TTITLE1=恋のしずく
TTITLE2=誰も知らない
TTITLE3=季節風
TTITLE4=彼
TTITLE5=わたしだけのもの
TTITLE6=知らなかったの
TTITLE7=あのひと
TTITLE8=深夜放送
TTITLE9=小指の想い出
TTITLE10=愛ふたたび
TTITLE11=生きる歓び
EXTD=
EXTT0=
EXTT1=
EXTT2=
EXTT3=
EXTT4=
EXTT5=
EXTT6=
EXTT7=
EXTT8=
EXTT9=
EXTT10=
EXTT11=
PLAYORDER=
